<svg xmlns="http://www.w3.org/2000/svg" width="1280" height="269" viewBox="0 0 1280 269" fill="none"><path d="M288.008 52.5645C287.875 49.9438 287.467 47.361 286.788 44.8162C286.689 44.4506 286.584 44.085 286.48 43.7242C283.451 33.6684 276.248 25.2459 265.775 18.6133C254.423 11.4157 239.225 6.32137 221.331 3.5202C196.016 -0.439433 165.303 0.187268 132.443 5.96529C122.074 7.78843 111.492 10.1243 100.8 12.9872C96.4459 14.1552 92.1492 15.3896 87.9237 16.6857C80.2798 19.0264 72.8496 21.5712 65.6662 24.2964C57.9511 27.221 50.5161 30.3498 43.4087 33.6495C41.3814 34.5943 39.3779 35.5486 37.4028 36.5171L20.0972 139.695C24.1518 137.331 28.3583 135.009 32.712 132.745C36.1874 130.936 39.753 129.155 43.4087 127.418C50.5114 124.033 57.9464 120.79 65.6662 117.718C72.8448 114.855 80.2751 112.144 87.9237 109.604C95.8382 106.974 103.985 104.529 112.337 102.293C119.093 100.484 125.801 98.8552 132.443 97.4118C164.486 90.4421 194.952 87.6884 221.331 88.8042C237.981 89.5021 253.008 91.743 265.775 95.432C266.781 95.7216 267.773 96.0255 268.752 96.3341C271.14 93.6469 273.324 90.9454 275.294 88.2344C283.052 77.5852 287.5 66.8458 288.008 56.5526V52.5645Z" fill="white"></path><path d="M46.3571 177.193C52.4864 177.421 58.8247 177.421 65.3339 177.193L65.6662 177.184C72.8876 176.923 80.3226 176.381 87.9237 175.546C102.271 173.984 117.213 171.387 132.443 167.712C135.496 166.981 138.559 166.197 141.63 165.376C171.631 157.338 198.784 146.124 221.331 133.2C221.597 133.053 221.858 132.901 222.119 132.745C239.847 122.508 254.689 111.209 265.775 99.5721C266.8 98.4943 267.792 97.4166 268.752 96.3341C276.001 98.6225 282.458 101.405 288.008 104.662C299.156 111.214 306.615 119.684 309.364 129.929C309.615 130.86 309.824 131.8 309.986 132.745C310.261 134.269 310.427 135.812 310.484 137.369C310.489 137.564 310.508 138.038 310.503 138.665C310.503 139.401 310.484 140.284 310.484 140.284C310.005 152.13 303.78 164.716 292.903 177.193C291.365 178.959 289.732 180.721 288.008 182.482C281.741 188.882 274.278 195.22 265.775 201.378C256.051 208.429 244.956 215.237 232.726 221.642C229.027 223.574 225.229 225.468 221.331 227.325C200.811 237.086 177.585 245.675 152.55 252.383C145.794 254.192 139.086 255.821 132.443 257.264C117.156 260.592 102.224 262.957 87.9237 264.395C80.3131 265.169 72.8781 265.677 65.6662 265.924C63.2686 266.009 60.8947 266.066 58.5493 266.09H51.5606C48.8022 266.057 46.0865 265.986 43.4087 265.867C27.1999 265.179 12.5341 263.028 0 259.496L14.3999 173.661C23.3495 175.422 33.0729 176.571 43.4087 177.07L46.3571 177.193Z" fill="white"></path><path d="M398.868 214.177V61.4852H457.824C466.378 61.4852 473.836 63.2524 480.198 66.787C486.56 70.3215 491.508 75.0931 495.043 81.1018C498.577 87.0399 500.345 93.6141 500.345 100.825C500.345 109.025 498.153 116.341 493.77 122.774C489.388 129.136 483.52 133.554 476.168 136.029L475.956 130.833C485.853 133.66 493.629 138.609 499.284 145.678C504.94 152.747 507.767 161.3 507.767 171.339C507.767 180.175 505.894 187.809 502.147 194.242C498.401 200.604 493.134 205.517 486.348 208.981C479.562 212.445 471.68 214.177 462.702 214.177H398.868ZM414.562 199.226H458.885C465.105 199.226 470.69 198.13 475.638 195.939C480.587 193.677 484.475 190.496 487.302 186.396C490.201 182.296 491.65 177.347 491.65 171.551C491.65 165.895 490.342 160.806 487.726 156.281C485.111 151.757 481.541 148.152 477.017 145.466C472.563 142.709 467.474 141.33 461.748 141.33H414.562V199.226ZM414.562 126.591H457.718C462.596 126.591 467.049 125.496 471.079 123.304C475.108 121.042 478.289 117.967 480.622 114.079C483.025 110.191 484.227 105.702 484.227 100.612C484.227 93.402 481.718 87.5347 476.699 83.0105C471.75 78.4863 465.423 76.2242 457.718 76.2242H414.562V126.591Z" fill="white"></path><path d="M518.324 214.177V99.6581H532.321V127.228L529.564 123.622C530.837 120.229 532.498 117.119 534.548 114.291C536.598 111.393 538.825 109.025 541.228 107.187C544.197 104.571 547.661 102.592 551.62 101.249C555.578 99.8349 559.572 99.0219 563.602 98.8099C567.631 98.5271 571.307 98.8099 574.63 99.6581V114.291C570.459 113.231 565.899 112.983 560.951 113.549C556.003 114.114 551.443 116.094 547.272 119.487C543.455 122.456 540.592 126.026 538.683 130.197C536.775 134.297 535.502 138.679 534.866 143.345C534.23 147.94 533.912 152.499 533.912 157.024V214.177H518.324Z" fill="white"></path><path d="M586.262 77.9207V60.4248H601.849V77.9207H586.262ZM586.262 214.177V99.6581H601.849V214.177H586.262Z" fill="white"></path><path d="M668.525 268.255C662.657 268.255 656.861 267.372 651.135 265.605C645.479 263.908 640.248 261.186 635.441 257.44C630.634 253.764 626.605 248.957 623.353 243.019L637.456 235.172C640.637 241.534 645.091 246.094 650.816 248.851C656.613 251.679 662.516 253.092 668.525 253.092C676.795 253.092 683.476 251.537 688.565 248.427C693.726 245.387 697.472 240.863 699.805 234.854C702.138 228.845 703.269 221.352 703.198 212.374V181.836H705.001V99.6581H718.892V212.587C718.892 215.838 718.786 218.949 718.574 221.918C718.432 224.957 718.114 227.926 717.619 230.825C716.276 239.378 713.484 246.412 709.242 251.926C705.072 257.44 699.558 261.54 692.701 264.226C685.914 266.912 677.856 268.255 668.525 268.255ZM667.464 217.358C656.79 217.358 647.671 214.707 640.107 209.405C632.543 204.033 626.746 196.787 622.717 187.668C618.688 178.549 616.673 168.263 616.673 156.812C616.673 145.43 618.652 135.18 622.611 126.061C626.64 116.942 632.402 109.732 639.895 104.43C647.388 99.128 656.366 96.4771 666.828 96.4771C677.573 96.4771 686.621 99.0926 693.973 104.324C701.325 109.555 706.874 116.73 710.621 125.849C714.438 134.897 716.347 145.218 716.347 156.812C716.347 168.193 714.473 178.478 710.727 187.668C706.98 196.787 701.466 204.033 694.185 209.405C686.904 214.707 677.997 217.358 667.464 217.358ZM669.055 202.831C677.184 202.831 683.9 200.852 689.202 196.893C694.503 192.935 698.462 187.491 701.078 180.564C703.693 173.565 705.001 165.648 705.001 156.812C705.001 147.834 703.693 139.917 701.078 133.06C698.462 126.132 694.503 120.724 689.202 116.836C683.97 112.948 677.361 111.004 669.373 111.004C661.173 111.004 654.386 113.019 649.014 117.048C643.641 121.077 639.647 126.556 637.032 133.484C634.487 140.411 633.215 148.187 633.215 156.812C633.215 165.507 634.522 173.353 637.138 180.352C639.824 187.279 643.818 192.758 649.12 196.787C654.422 200.817 661.067 202.831 669.055 202.831Z" fill="white"></path><path d="M820.643 214.177V155.751C820.643 149.389 820.042 143.557 818.841 138.255C817.639 132.883 815.695 128.217 813.009 124.259C810.393 120.229 806.965 117.119 802.723 114.927C798.552 112.736 793.463 111.64 787.454 111.64C781.94 111.64 777.062 112.595 772.821 114.503C768.65 116.412 765.116 119.169 762.217 122.774C759.39 126.309 757.234 130.621 755.749 135.71C754.265 140.8 753.522 146.597 753.522 153.1L742.495 150.661C742.495 138.927 744.545 129.065 748.645 121.077C752.745 113.089 758.4 107.045 765.61 102.945C772.821 98.8452 781.092 96.7952 790.423 96.7952C797.28 96.7952 803.253 97.8555 808.343 99.9763C813.503 102.097 817.851 104.96 821.385 108.565C824.991 112.17 827.889 116.306 830.08 120.971C832.272 125.566 833.862 130.479 834.852 135.71C835.842 140.871 836.337 146.031 836.337 151.192V214.177H820.643ZM737.829 214.177V61.4852H751.932V147.692H753.522V214.177H737.829Z" fill="white"></path><path d="M915.598 214.177C909.166 215.52 902.803 216.05 896.512 215.768C890.291 215.485 884.707 214.142 879.758 211.738C874.881 209.335 871.169 205.588 868.625 200.498C866.574 196.257 865.443 191.98 865.231 187.668C865.09 183.285 865.019 178.302 865.019 172.717V67.8473H880.501V172.081C880.501 176.888 880.536 180.917 880.607 184.169C880.748 187.35 881.49 190.178 882.833 192.652C885.378 197.388 889.408 200.216 894.921 201.135C900.506 202.054 907.398 201.842 915.598 200.498V214.177ZM840.525 113.019V99.6581H915.598V113.019H840.525Z" fill="white"></path><path d="M927.557 214.177V61.4852H943.145V130.303H1027.55V61.4852H1043.03V214.177H1027.55V145.254H943.145V214.177H927.557Z" fill="white"></path><path d="M1105.92 217.04C1099.07 217.04 1093.06 215.98 1087.9 213.859C1082.81 211.738 1078.46 208.875 1074.86 205.27C1071.32 201.665 1068.46 197.565 1066.27 192.97C1064.08 188.304 1062.49 183.391 1061.5 178.231C1060.51 173 1060.01 167.804 1060.01 162.644V99.6581H1075.7V158.084C1075.7 164.375 1076.31 170.207 1077.51 175.58C1078.71 180.952 1080.62 185.653 1083.23 189.683C1085.92 193.641 1089.35 196.716 1093.52 198.908C1097.76 201.099 1102.89 202.195 1108.89 202.195C1114.41 202.195 1119.25 201.241 1123.42 199.332C1127.66 197.423 1131.2 194.702 1134.02 191.167C1136.92 187.562 1139.11 183.215 1140.6 178.125C1142.08 172.964 1142.83 167.168 1142.83 160.735L1153.85 163.174C1153.85 174.908 1151.8 184.77 1147.7 192.758C1143.6 200.746 1137.95 206.79 1130.74 210.89C1123.53 214.99 1115.26 217.04 1105.92 217.04ZM1144.42 214.177V185.971H1142.83V99.6581H1158.41V214.177H1144.42Z" fill="white"></path><path d="M1228.87 217.358C1218.34 217.358 1209.43 214.707 1202.15 209.405C1194.87 204.033 1189.36 196.787 1185.61 187.668C1181.86 178.478 1179.99 168.193 1179.99 156.812C1179.99 145.218 1181.86 134.897 1185.61 125.849C1189.43 116.73 1195.01 109.555 1202.36 104.324C1209.72 99.0926 1218.76 96.4771 1229.51 96.4771C1239.97 96.4771 1248.95 99.128 1256.44 104.43C1263.94 109.732 1269.66 116.942 1273.62 126.061C1277.65 135.18 1279.67 145.43 1279.67 156.812C1279.67 168.263 1277.65 178.549 1273.62 187.668C1269.59 196.787 1263.8 204.033 1256.23 209.405C1248.67 214.707 1239.55 217.358 1228.87 217.358ZM1177.34 214.177V61.4852H1193.03V127.97H1191.34V214.177H1177.34ZM1227.28 202.831C1235.27 202.831 1241.92 200.817 1247.22 196.787C1252.52 192.758 1256.48 187.279 1259.09 180.352C1261.78 173.353 1263.12 165.507 1263.12 156.812C1263.12 148.187 1261.82 140.411 1259.2 133.484C1256.58 126.556 1252.59 121.077 1247.22 117.048C1241.92 113.019 1235.17 111.004 1226.97 111.004C1218.98 111.004 1212.33 112.948 1207.03 116.836C1201.8 120.724 1197.88 126.132 1195.26 133.06C1192.64 139.917 1191.34 147.834 1191.34 156.812C1191.34 165.648 1192.64 173.565 1195.26 180.564C1197.88 187.491 1201.83 192.935 1207.14 196.893C1212.44 200.852 1219.15 202.831 1227.28 202.831Z" fill="white"></path></svg>